<svg id="Icons" xmlns="http://www.w3.org/2000/svg" viewBox="0 0 24 24"><defs><style>.cls-1{fill:#bbdefb;}.cls-2{fill:#309ffb;}.cls-3{fill:#fe9517;}</style></defs><title>Low Tide</title><path class="cls-1" d="M16.5,16a4,4,0,0,1-2.91-1.24A2.12,2.12,0,0,0,12,14a2.09,2.09,0,0,0-1.59.74,4,4,0,0,1-5.82,0A2.11,2.11,0,0,0,3,14a1,1,0,1,1,0-2,4.09,4.09,0,0,1,2.91,1.24,2.07,2.07,0,0,0,3.17,0,4,4,0,0,1,5.83,0,2.08,2.08,0,0,0,3.18,0A4.07,4.07,0,0,1,21,12a1,1,0,0,1,0,2,2.11,2.11,0,0,0-1.59.74A4.09,4.09,0,0,1,16.5,16Z"/><path class="cls-2" d="M16.5,21a4,4,0,0,1-2.91-1.24A2.12,2.12,0,0,0,12,19a2.09,2.09,0,0,0-1.59.74,4,4,0,0,1-5.82,0A2.11,2.11,0,0,0,3,19a1,1,0,0,1,0-2,4.09,4.09,0,0,1,2.91,1.24,2.07,2.07,0,0,0,3.17,0,4,4,0,0,1,5.83,0,2.08,2.08,0,0,0,3.18,0A4.07,4.07,0,0,1,21,17a1,1,0,0,1,0,2,2.11,2.11,0,0,0-1.59.74A4.09,4.09,0,0,1,16.5,21Z"/><path class="cls-3" d="M15.71,5.29a1,1,0,0,0-1.42,0L13,6.59V4a1,1,0,0,0-2,0V6.59L9.71,5.29A1,1,0,0,0,8.29,6.71l3,3a1,1,0,0,0,1.42,0l3-3A1,1,0,0,0,15.71,5.29Z"/></svg>