<svg id="Icons" xmlns="http://www.w3.org/2000/svg" viewBox="0 0 24 24"><defs><style>.cls-1{fill:#fe9517;}.cls-2{fill:#f8d800;}.cls-3{fill:#309ffb;}</style></defs><title>Sunrise2</title><path class="cls-1" d="M12,7a1,1,0,0,1-1-1V4a1,1,0,0,1,2,0V6A1,1,0,0,1,12,7Z"/><path class="cls-1" d="M7.05,9.05a1,1,0,0,1-.71-.29L4.93,7.34A1,1,0,0,1,6.34,5.93L7.76,7.34a1,1,0,0,1,0,1.42A1,1,0,0,1,7.05,9.05Z"/><path class="cls-1" d="M5,14H3a1,1,0,0,1,0-2H5a1,1,0,0,1,0,2Z"/><path class="cls-1" d="M21,14H19a1,1,0,0,1,0-2h2a1,1,0,0,1,0,2Z"/><path class="cls-1" d="M17,9.05a1,1,0,0,1-.71-.29,1,1,0,0,1,0-1.42l1.42-1.41a1,1,0,1,1,1.41,1.41L17.66,8.76A1,1,0,0,1,17,9.05Z"/><path class="cls-2" d="M12,8a5,5,0,0,0-5,5,1,1,0,0,0,1,1h8a1,1,0,0,0,1-1A5,5,0,0,0,12,8Z"/><path class="cls-3" d="M21,18H15a1,1,0,0,1-.71-.29L12,15.41l-2.29,2.3A1,1,0,0,1,9,18H3a1,1,0,0,1,0-2H8.59l2.7-2.71a1,1,0,0,1,1.42,0L15.41,16H21a1,1,0,0,1,0,2Z"/></svg>